<svg width="249" height="92" viewBox="0 0 249 92" fill="none" xmlns="http://www.w3.org/2000/svg">
<path d="M0.943182 75.3636V56.9545L36.0568 1.72727H52.7614V26.2727H43.2159L24.2955 56.2727V56.9545H76.1136V75.3636H0.943182ZM43.3864 89V69.7386L43.8977 61.7273V1.72727H66.0568V89H43.3864ZM124.065 91.3864C116.138 91.358 109.292 89.5256 103.525 85.8892C97.7578 82.2528 93.3118 77.0114 90.1868 70.1648C87.0618 63.3182 85.5135 55.108 85.5419 45.5341C85.5703 35.9318 87.1328 27.7784 90.2294 21.0739C93.3544 14.3693 97.7862 9.26988 103.525 5.77557C109.292 2.28125 116.138 0.534088 124.065 0.534088C131.991 0.534088 138.837 2.29545 144.604 5.81818C150.371 9.3125 154.817 14.4119 157.942 21.1165C161.067 27.821 162.616 35.9602 162.587 45.5341C162.587 55.1648 161.025 63.4034 157.9 70.25C154.775 77.0966 150.329 82.3381 144.562 85.9744C138.823 89.5824 131.991 91.3864 124.065 91.3864ZM124.065 72.125C128.156 72.125 131.508 69.9943 134.121 65.733C136.763 61.4432 138.07 54.7102 138.042 45.5341C138.042 39.5398 137.445 34.6392 136.252 30.8324C135.059 27.0256 133.411 24.2131 131.309 22.3949C129.207 20.5483 126.792 19.625 124.065 19.625C119.974 19.625 116.636 21.6989 114.05 25.8466C111.465 29.9943 110.144 36.5568 110.087 45.5341C110.059 51.642 110.641 56.6705 111.835 60.6193C113.028 64.5398 114.675 67.4375 116.778 69.3125C118.908 71.1875 121.337 72.125 124.065 72.125ZM172.857 75.3636V56.9545L207.971 1.72727H224.675V26.2727H215.13L196.21 56.2727V56.9545H248.028V75.3636H172.857ZM215.3 89V69.7386L215.812 61.7273V1.72727H237.971V89H215.3Z" fill="#9333ea"/>
</svg>
