<svg width="1200" height="1600" viewBox="0 0 1200 1600" fill="none" xmlns="http://www.w3.org/2000/svg">
<path d="M1200 400C979.086 400 800 220.914 800 0V0L1200 -1.74846e-05L1200 400V400Z" fill="#E879F9"/>
<path d="M0 1200L-8.74228e-06 1000L400 1000C510.457 1000 600 1089.54 600 1200V1200L0 1200Z" fill="#B65CEE"/>
<path d="M800 600L400 600V600C400 489.543 489.543 400 600 400L800 400L800 600Z" fill="#B65CEE"/>
<path d="M400 0L600 0V0C600 110.457 510.457 200 400 200V200L400 0Z" fill="#FB7185"/>
<rect x="400" y="1200" width="400" height="400" fill="#B9F8B2"/>
<rect width="400" height="400" fill="#FFD700"/>
<rect y="200" width="282.84" height="282.84" transform="rotate(-45 0 200)" fill="#2563EB"/>
<rect x="130" y="200.711" width="100" height="100" transform="rotate(-45 130 200.711)" fill="#FFD700"/>
<rect x="450" y="1250" width="150" height="150" rx="75" fill="#FF722F"/>
<rect x="600" y="1250" width="150" height="150" rx="75" fill="#FF722F"/>
<rect x="450" y="1400" width="150" height="150" rx="75" fill="#FF722F"/>
<rect x="600" y="1400" width="150" height="150" rx="75" fill="#FF722F"/>
<rect y="800" width="200" height="200" rx="100" fill="#E879F9"/>
<rect y="1200" width="400" height="400" fill="#81E1BB"/>
<rect x="800" y="500" width="400" height="100" fill="#FFD700"/>
<rect x="600" y="200" width="200" height="200" fill="#2563EB"/>
<rect x="1000" y="1001" width="200" height="200" fill="#FFD700"/>
<rect x="800" y="400" width="400" height="100" fill="#FF722F"/>
<rect x="800" y="1200" width="400" height="400" fill="#FB7185"/>
<path d="M800 1200H1200V1200C1200 1310.46 1110.46 1400 1000 1400V1400C889.543 1400 800 1310.46 800 1200V1200Z" fill="#FFD700"/>
<path d="M904 1200H1104V1200C1104 1255.23 1059.23 1300 1004 1300V1300C948.772 1300 904 1255.23 904 1200V1200Z" fill="#FB7185"/>
<path d="M800 1400H1200V1400C1200 1510.46 1110.46 1600 1000 1600V1600C889.543 1600 800 1510.46 800 1400V1400Z" fill="#FFD700"/>
<path d="M900 1400H1100V1400C1100 1455.23 1055.23 1500 1000 1500V1500C944.772 1500 900 1455.23 900 1400V1400Z" fill="#FB7185"/>
<rect y="1200" width="400" height="400" rx="200" fill="#B9F8B2"/>
<rect x="98" y="1300" width="200" height="200" rx="100" fill="#81E1BB"/>
<path d="M277.905 764.171V730.844H308.707V764.171H327.56V787.703H308.707V816.132C308.707 824.389 311.038 828.504 315.714 828.504C316.848 828.504 318.058 828.289 319.343 827.848C320.616 827.38 321.612 826.913 322.318 826.434L323.376 825.727L331.039 850.672C324.41 854.409 316.873 856.277 308.404 856.277C302.582 856.277 297.578 855.267 293.382 853.247C289.21 851.202 286.047 848.45 283.904 845.016C281.749 841.583 280.199 837.985 279.266 834.21C278.359 830.41 277.905 826.371 277.905 822.091V787.703H265V764.171H277.905Z" fill="black"/>
<path d="M325.075 853.654V764.175H355.927V777.051H356.28C356.507 776.584 356.885 776.016 357.389 775.334C357.918 774.627 359.053 773.403 360.767 771.648C362.506 769.906 364.371 768.341 366.362 766.952C368.341 765.538 370.899 764.301 374.025 763.215C377.15 762.104 380.339 761.549 383.603 761.549C386.955 761.549 390.27 762.029 393.534 762.963C396.785 763.872 399.18 764.806 400.692 765.74L403.112 767.103L390.207 793.311C386.375 790.054 381.044 788.413 374.226 788.413C370.496 788.413 367.282 789.246 364.598 790.887C361.939 792.503 360.061 794.473 358.952 796.795C357.843 799.118 357.049 801.113 356.582 802.754C356.141 804.37 355.927 805.632 355.927 806.541V853.654H325.075Z" fill="black"/>
<path d="M398.397 714.284C401.989 710.648 406.274 708.83 411.252 708.83C416.255 708.83 420.553 710.648 424.157 714.284C427.749 717.894 429.551 722.199 429.551 727.211C429.551 732.197 427.749 736.49 424.157 740.087C420.553 743.698 416.255 745.491 411.252 745.491C406.274 745.491 401.989 743.698 398.397 740.087C394.793 736.49 393.003 732.197 393.003 727.211C393.003 722.199 394.793 717.894 398.397 714.284ZM395.423 764.174V853.654H426.274V764.174H395.423Z" fill="black"/>
<path d="M460.729 764.172V806.74C460.729 815.565 462.052 821.839 464.712 825.576C467.396 829.287 471.933 831.13 478.323 831.13C484.7 831.13 489.224 829.287 491.883 825.576C494.568 821.839 495.916 815.565 495.916 806.74V764.172H526.768V814.214C526.768 829.098 522.899 839.841 515.173 846.431C507.435 852.995 495.16 856.278 478.323 856.278C461.485 856.278 449.197 852.995 441.472 846.431C433.772 839.841 429.928 829.098 429.928 814.214V764.172H460.729Z" fill="black"/>
<path d="M529.503 853.654V764.175H560.355V773.567H560.708C568.698 765.563 577.243 761.549 586.317 761.549C592.795 761.549 598.882 762.9 604.566 765.589C610.275 768.252 614.572 772.38 617.471 777.96C626.545 767.028 636.401 761.549 647.063 761.549C656.603 761.549 664.782 764.225 671.613 769.578C678.469 774.93 681.897 783.3 681.897 794.675V853.654H651.095V803.057C651.095 798.285 649.785 794.296 647.163 791.089C644.542 787.895 640.623 786.292 635.418 786.292C630.881 786.292 627.415 787.681 625.033 790.433C622.676 793.16 621.378 796.442 621.151 800.28V853.654H590.299V803.057C590.299 798.285 588.989 794.296 586.367 791.089C583.771 787.895 579.864 786.292 574.622 786.292C569.845 786.292 566.266 787.794 563.884 790.786C561.527 793.753 560.355 797.25 560.355 801.29V853.654H529.503Z" fill="black"/>
<path d="M776.608 775.233C784.976 784.361 789.16 795.558 789.16 808.814C789.16 822.082 784.976 833.304 776.608 842.495C768.265 851.685 757.653 856.28 744.748 856.28C732.914 856.28 723.172 852.569 715.509 845.121V899H684.657V764.175H715.156V774.274H715.509C723.172 765.791 732.914 761.549 744.748 761.549C757.653 761.549 768.265 766.119 776.608 775.233ZM750.394 824.013C754.427 820.049 756.443 814.974 756.443 808.814C756.443 802.653 754.528 797.629 750.696 793.715C746.865 789.814 741.799 787.858 735.522 787.858C729.498 787.858 724.545 789.852 720.651 793.816C716.744 797.755 714.803 802.754 714.803 808.814C714.803 814.974 716.795 820.049 720.802 824.013C724.797 827.952 729.7 829.921 735.522 829.921C741.433 829.921 746.386 827.952 750.394 824.013Z" fill="black"/>
<path d="M787.22 853.652V703.627H818.072V773.565H818.425C826.415 765.561 834.959 761.546 844.033 761.546C848.432 761.546 852.805 762.14 857.14 763.314C861.501 764.463 865.685 766.268 869.693 768.717C873.688 771.141 876.927 774.6 879.422 779.069C881.943 783.55 883.203 788.751 883.203 794.672V853.652H852.351V803.055C852.351 798.409 850.864 794.357 847.915 790.885C844.953 787.388 841.11 785.633 836.371 785.633C831.695 785.633 827.473 787.439 823.718 791.036C819.949 794.647 818.072 798.649 818.072 803.055V853.652H787.22Z" fill="black"/>
<path d="M888.929 714.284C892.52 710.648 896.805 708.83 901.784 708.83C906.787 708.83 911.084 710.648 914.689 714.284C918.281 717.894 920.083 722.199 920.083 727.211C920.083 732.197 918.281 736.49 914.689 740.087C911.084 743.698 906.787 745.491 901.784 745.491C896.805 745.491 892.52 743.698 888.929 740.087C885.324 736.49 883.535 732.197 883.535 727.211C883.535 722.199 885.324 717.894 888.929 714.284ZM885.954 764.174V853.654H916.806V764.174H885.954Z" fill="black"/>
<path d="M927.415 764.171V745.134C927.515 731.778 930.641 721.085 936.791 713.069C942.966 705.027 951.511 701 962.4 701C967.063 701 971.524 701.682 975.759 703.02C979.994 704.333 983.031 705.696 984.883 707.11L987.858 709.029L977.07 730.843C974.272 729.202 971.197 728.369 967.844 728.369C963.975 728.369 961.404 729.682 960.132 732.308C958.846 734.934 958.216 739.504 958.216 745.992V764.171H978.784V787.703H958.216V853.651H927.415V787.703H914.509V764.171H927.415Z" fill="black"/>
<path d="M1038.85 764.172H1074.39L1004.22 898.998H968.679L999.481 839.715L957.186 764.172H992.726L1017.63 810.023L1038.85 764.172Z" fill="black"/>
<path d="M1115.99 816.336C1121.56 816.336 1126.28 818.293 1130.15 822.194C1134.05 826.069 1136 830.803 1136 836.383C1136 841.837 1134.05 846.52 1130.15 850.421C1126.28 854.322 1121.56 856.279 1115.99 856.279C1110.54 856.279 1105.87 854.322 1101.97 850.421C1098.07 846.52 1096.12 841.837 1096.12 836.383C1096.12 830.803 1098.07 826.069 1101.97 822.194C1105.87 818.293 1110.54 816.336 1115.99 816.336Z" fill="black"/>
<path d="M1200 1200H800L1000 1000L1200 1200Z" fill="#81E1BB"/>
<path d="M604 1001L1004 1001L804 1201L604 1001Z" fill="#81E1BB"/>
<path d="M0 800V400H400L0 800Z" fill="#FF722F"/>
</svg>
