<svg width="1200" height="600" viewBox="0 0 1200 600" fill="none" xmlns="http://www.w3.org/2000/svg">
<path d="M1200 400C979.086 400 800 220.914 800 0V0L1200 -1.74846e-05L1200 400V400Z" fill="#E879F9"/>
<path d="M600 600L400 600V600C400 489.543 489.543 400 600 400V400L600 600Z" fill="#B65CEE"/>
<path d="M400 200L0 200V200C9.65645e-06 89.543 89.5431 3.37657e-06 200 1.3033e-05L400 3.05176e-05L400 200Z" fill="#B65CEE"/>
<path d="M600 0L800 0V0C800 110.457 710.457 200 600 200V200V0Z" fill="#FB7185"/>
<rect x="201" y="400" width="200" height="200" fill="#B9F8B2"/>
<rect y="200" width="200" height="200" fill="#FFD700"/>
<rect y="300" width="141.42" height="141.42" transform="rotate(-45 0 300)" fill="#2563EB"/>
<rect x="65" y="300.355" width="50" height="50" transform="rotate(-45 65 300.355)" fill="#FFD700"/>
<rect x="226" y="425" width="75" height="75" rx="37.5" fill="#FF722F"/>
<rect x="301" y="425" width="75" height="75" rx="37.5" fill="#FF722F"/>
<rect x="226" y="500" width="75" height="75" rx="37.5" fill="#FF722F"/>
<rect x="301" y="500" width="75" height="75" rx="37.5" fill="#FF722F"/>
<rect x="25" y="425" width="150" height="150" rx="75" fill="#E879F9"/>
<rect x="400" width="200" height="200" fill="#81E1BB"/>
<rect x="600" y="500" width="200" height="100" fill="#FFD700"/>
<rect x="600" y="400" width="200" height="100" fill="#FF722F"/>
<rect x="1000" y="400" width="200" height="200" fill="#FB7185"/>
<path d="M1000 400H1200V400C1200 455.228 1155.23 500 1100 500V500C1044.77 500 1000 455.228 1000 400V400Z" fill="#FFD700"/>
<path d="M1052 400H1152V400C1152 427.614 1129.61 450 1102 450V450C1074.39 450 1052 427.614 1052 400V400Z" fill="#FB7185"/>
<path d="M1000 500H1200V500C1200 555.228 1155.23 600 1100 600V600C1044.77 600 1000 555.228 1000 500V500Z" fill="#FFD700"/>
<path d="M1050 500H1150V500C1150 527.614 1127.61 550 1100 550V550C1072.39 550 1050 527.614 1050 500V500Z" fill="#FB7185"/>
<rect x="400" width="200" height="200" rx="100" fill="#B9F8B2"/>
<rect x="449" y="50" width="100" height="100" rx="50" fill="#81E1BB"/>
<path d="M302.127 274.667V251.102H323.911V274.667H337.245V291.305H323.911V311.407C323.911 317.244 325.56 320.154 328.866 320.154C329.669 320.154 330.524 320.003 331.433 319.69C332.334 319.36 333.038 319.03 333.537 318.69L334.286 318.191L339.705 335.829C335.017 338.471 329.686 339.792 323.697 339.792C319.579 339.792 316.04 339.078 313.072 337.65C310.122 336.203 307.885 334.258 306.37 331.83C304.846 329.402 303.749 326.858 303.09 324.189C302.448 321.502 302.127 318.646 302.127 315.62V291.305H293V274.667H302.127Z" fill="black"/>
<path d="M335.487 337.938V274.669H357.307V283.774H357.556C357.717 283.444 357.984 283.042 358.34 282.56C358.715 282.06 359.517 281.194 360.729 279.953C361.959 278.722 363.278 277.615 364.687 276.633C366.086 275.633 367.895 274.758 370.106 273.991C372.316 273.205 374.571 272.812 376.88 272.812C379.251 272.812 381.595 273.152 383.903 273.812C386.203 274.455 387.896 275.115 388.966 275.776L390.677 276.74L381.55 295.271C378.841 292.968 375.07 291.807 370.248 291.807C367.61 291.807 365.337 292.396 363.439 293.557C361.558 294.699 360.23 296.092 359.446 297.734C358.661 299.377 358.1 300.787 357.77 301.947C357.458 303.09 357.307 303.983 357.307 304.625V337.938H335.487Z" fill="black"/>
<path d="M387.343 239.393C389.883 236.822 392.913 235.537 396.434 235.537C399.973 235.537 403.012 236.822 405.561 239.393C408.101 241.946 409.376 244.99 409.376 248.534C409.376 252.059 408.101 255.094 405.561 257.638C403.012 260.191 399.973 261.459 396.434 261.459C392.913 261.459 389.883 260.191 387.343 257.638C384.794 255.094 383.528 252.059 383.528 248.534C383.528 244.99 384.794 241.946 387.343 239.393ZM385.239 274.669V337.938H407.059V274.669H385.239Z" fill="black"/>
<path d="M431.426 274.666V304.765C431.426 311.004 432.362 315.441 434.243 318.083C436.141 320.707 439.35 322.01 443.869 322.01C448.379 322.01 451.579 320.707 453.459 318.083C455.358 315.441 456.311 311.004 456.311 304.765V274.666H478.131V310.049C478.131 320.573 475.395 328.169 469.931 332.829C464.458 337.47 455.777 339.791 443.869 339.791C431.961 339.791 423.271 337.47 417.807 332.829C412.361 328.169 409.642 320.573 409.642 310.049V274.666H431.426Z" fill="black"/>
<path d="M480.065 337.938V274.669H501.885V281.31H502.134C507.785 275.651 513.828 272.812 520.246 272.812C524.827 272.812 529.132 273.768 533.152 275.669C537.19 277.552 540.229 280.471 542.279 284.416C548.697 276.686 555.667 272.812 563.207 272.812C569.954 272.812 575.739 274.705 580.57 278.49C585.419 282.274 587.843 288.192 587.843 296.235V337.938H566.059V302.162C566.059 298.788 565.132 295.967 563.279 293.7C561.425 291.441 558.653 290.308 554.971 290.308C551.763 290.308 549.312 291.29 547.627 293.236C545.96 295.164 545.042 297.484 544.882 300.198V337.938H523.062V302.162C523.062 298.788 522.135 295.967 520.282 293.7C518.445 291.441 515.682 290.308 511.975 290.308C508.596 290.308 506.065 291.37 504.381 293.485C502.714 295.583 501.885 298.056 501.885 300.912V337.938H480.065Z" fill="black"/>
<path d="M654.826 282.488C660.744 288.942 663.703 296.86 663.703 306.232C663.703 315.613 660.744 323.549 654.826 330.047C648.925 336.545 641.421 339.794 632.293 339.794C623.924 339.794 617.034 337.17 611.615 331.904V370H589.796V274.669H611.365V281.81H611.615C617.034 275.812 623.924 272.812 632.293 272.812C641.421 272.812 648.925 276.044 654.826 282.488ZM636.287 316.979C639.139 314.176 640.565 310.588 640.565 306.232C640.565 301.876 639.21 298.323 636.5 295.556C633.791 292.798 630.208 291.415 625.769 291.415C621.509 291.415 618.006 292.825 615.252 295.628C612.488 298.413 611.116 301.947 611.116 306.232C611.116 310.588 612.524 314.176 615.359 316.979C618.184 319.764 621.651 321.157 625.769 321.157C629.949 321.157 633.452 319.764 636.287 316.979Z" fill="black"/>
<path d="M662.331 337.936V231.857H684.151V281.308H684.4C690.051 275.649 696.094 272.811 702.512 272.811C705.622 272.811 708.715 273.23 711.781 274.06C714.865 274.873 717.824 276.149 720.659 277.881C723.484 279.594 725.775 282.04 727.54 285.2C729.322 288.369 730.214 292.046 730.214 296.233V337.936H708.394V302.16C708.394 298.875 707.343 296.01 705.257 293.555C703.162 291.082 700.444 289.842 697.093 289.842C693.786 289.842 690.8 291.118 688.144 293.662C685.479 296.215 684.151 299.045 684.151 302.16V337.936H662.331Z" fill="black"/>
<path d="M734.263 239.393C736.803 236.822 739.834 235.537 743.354 235.537C746.893 235.537 749.932 236.822 752.482 239.393C755.022 241.946 756.296 244.99 756.296 248.534C756.296 252.059 755.022 255.094 752.482 257.638C749.932 260.191 746.893 261.459 743.354 261.459C739.834 261.459 736.803 260.191 734.263 257.638C731.714 255.094 730.448 252.059 730.448 248.534C730.448 244.99 731.714 241.946 734.263 239.393ZM732.16 274.669V337.938H753.979V274.669H732.16Z" fill="black"/>
<path d="M761.482 274.666V261.206C761.553 251.762 763.763 244.202 768.113 238.533C772.48 232.847 778.523 230 786.224 230C789.522 230 792.677 230.482 795.672 231.428C798.667 232.357 800.815 233.321 802.125 234.32L804.229 235.677L796.599 251.101C794.621 249.941 792.446 249.352 790.075 249.352C787.339 249.352 785.52 250.28 784.62 252.137C783.711 253.993 783.265 257.225 783.265 261.813V274.666H797.811V291.305H783.265V337.935H761.482V291.305H752.354V274.666H761.482Z" fill="black"/>
<path d="M840.294 274.666H865.429L815.8 369.997H790.665L812.449 328.08L782.537 274.666H807.672L825.284 307.086L840.294 274.666Z" fill="black"/>
<path d="M894.846 311.551C898.786 311.551 902.128 312.934 904.864 315.693C907.618 318.433 909 321.78 909 325.726C909 329.582 907.618 332.893 904.864 335.651C902.128 338.41 898.786 339.793 894.846 339.793C890.995 339.793 887.689 338.41 884.935 335.651C882.172 332.893 880.799 329.582 880.799 325.726C880.799 321.78 882.172 318.433 884.935 315.693C887.689 312.934 890.995 311.551 894.846 311.551Z" fill="black"/>
<path d="M1000 600H800L900 500L1000 600Z" fill="#81E1BB"/>
<path d="M800 400L1000 400L900 500L800 400Z" fill="#81E1BB"/>
</svg>
