<svg width="1200" height="1600" viewBox="0 0 1200 1600" fill="none" xmlns="http://www.w3.org/2000/svg">
<path d="M1200 400C979.086 400 800 220.914 800 0V0L1200 -1.74846e-05L1200 400V400Z" fill="#E879F9"/>
<path d="M0 1200L-8.74228e-06 1000L400 1000C510.457 1000 600 1089.54 600 1200V1200L0 1200Z" fill="#B65CEE"/>
<path d="M800 600L400 600V600C400 489.543 489.543 400 600 400L800 400L800 600Z" fill="#B65CEE"/>
<path d="M400 0L600 0V0C600 110.457 510.457 200 400 200V200L400 0Z" fill="#FB7185"/>
<rect x="400" y="1200" width="400" height="400" fill="#B9F8B2"/>
<rect width="400" height="400" fill="#FFD700"/>
<rect y="200" width="282.84" height="282.84" transform="rotate(-45 0 200)" fill="#2563EB"/>
<rect x="130" y="200.711" width="100" height="100" transform="rotate(-45 130 200.711)" fill="#FFD700"/>
<rect x="450" y="1250" width="150" height="150" rx="75" fill="#FF722F"/>
<rect x="600" y="1250" width="150" height="150" rx="75" fill="#FF722F"/>
<rect x="450" y="1400" width="150" height="150" rx="75" fill="#FF722F"/>
<rect x="600" y="1400" width="150" height="150" rx="75" fill="#FF722F"/>
<rect y="800" width="200" height="200" rx="100" fill="#E879F9"/>
<rect y="1200" width="400" height="400" fill="#81E1BB"/>
<rect x="800" y="500" width="400" height="100" fill="#FFD700"/>
<rect x="600" y="200" width="200" height="200" fill="#2563EB"/>
<rect x="1000" y="1001" width="200" height="200" fill="#FFD700"/>
<rect x="800" y="400" width="400" height="100" fill="#FF722F"/>
<rect x="800" y="1200" width="400" height="400" fill="#FB7185"/>
<path d="M800 1200H1200V1200C1200 1310.46 1110.46 1400 1000 1400V1400C889.543 1400 800 1310.46 800 1200V1200Z" fill="#FFD700"/>
<path d="M904 1200H1104V1200C1104 1255.23 1059.23 1300 1004 1300V1300C948.772 1300 904 1255.23 904 1200V1200Z" fill="#FB7185"/>
<path d="M800 1400H1200V1400C1200 1510.46 1110.46 1600 1000 1600V1600C889.543 1600 800 1510.46 800 1400V1400Z" fill="#FFD700"/>
<path d="M900 1400H1100V1400C1100 1455.23 1055.23 1500 1000 1500V1500C944.772 1500 900 1455.23 900 1400V1400Z" fill="#FB7185"/>
<rect y="1200" width="400" height="400" rx="200" fill="#B9F8B2"/>
<rect x="98" y="1300" width="200" height="200" rx="100" fill="#81E1BB"/>
<path d="M1200 1200H800L1000 1000L1200 1200Z" fill="#81E1BB"/>
<path d="M604 1001L1004 1001L804 1201L604 1001Z" fill="#81E1BB"/>
<path d="M0 800V400H400L0 800Z" fill="#FF722F"/>
</svg>
