<svg width="1920" height="1080" viewBox="0 0 1920 1080" fill="none" xmlns="http://www.w3.org/2000/svg">
<rect width="1920" height="1080" fill="white"/>
<path fill-rule="evenodd" clip-rule="evenodd" d="M1604.22 493.611C1710.5 446.751 1808.59 403.5 1920 403.5V181.995C1914.69 181.995 1909.33 181.993 1903.94 181.991C1619.77 181.877 1232.58 181.721 964 491.495C937.776 521.742 912.171 549.625 886.884 575.234C911.169 578.421 936.814 582.805 964 588.501C1252.11 648.866 1438.16 566.832 1604.22 493.611ZM240.971 805.815C168.613 799.188 89.0046 786.702 0 768.995V883C96.9096 863.72 174.716 836.397 240.971 805.815Z" fill="url(#paint0_linear_549_4337)" fill-opacity="0.5"/>
<path fill-rule="evenodd" clip-rule="evenodd" d="M886.884 575.234C667.077 546.39 558.736 615.668 428.799 698.756C373.515 734.107 314.322 771.959 240.971 805.816C524.552 831.787 696.78 767.754 886.884 575.234Z" fill="url(#paint1_linear_549_4337)" fill-opacity="0.5"/>
<defs>
<linearGradient id="paint0_linear_549_4337" x1="759" y1="445.5" x2="899" y2="806" gradientUnits="userSpaceOnUse">
<stop stop-color="#FDF4FF" stop-opacity="0.2"/>
<stop offset="1" stop-color="#D946EF" stop-opacity="0.2"/>
</linearGradient>
<linearGradient id="paint1_linear_549_4337" x1="653.5" y1="811" x2="564" y2="569" gradientUnits="userSpaceOnUse">
<stop stop-color="#FDF4FF" stop-opacity="0.2"/>
<stop offset="1" stop-color="#E879F9" stop-opacity="0.48"/>
</linearGradient>
</defs>
</svg>
