<svg width="1922" height="961" viewBox="0 0 1922 961" fill="none" xmlns="http://www.w3.org/2000/svg">
<path d="M961 320.268C1257.5 705.938 1540.61 741.728 1921 320.268V960H1V320.268C317 -146.204 664.5 -65.401 961 320.268Z" fill="#F0ABFC" fill-opacity="0.075"/>
<path d="M1 960.005C1311 926.001 1890 902.5 1921 960.005" stroke="#F5D0FE"/>
<path d="M1 588.49C368.591 806.07 602.252 842.191 961.5 588.49C1320.75 334.79 1616.5 340.501 1921 587.99" stroke="#FAE8FF"/>
<path d="M1 915.228C624.066 924.29 1069.81 915.525 1387.39 884.725C1704.97 853.925 1873.39 862.116 1921 915.172" stroke="#F6D3FE"/>
<path d="M1 873.736C592.131 908.863 1011.36 905.709 1334.15 847.046C1656.94 788.384 1841.28 796.265 1921 873.625" stroke="#F6D5FE"/>
<path d="M1 832.739C560.197 893.931 952.917 896.388 1280.92 809.862C1608.92 723.337 1809.17 730.908 1921 832.573" stroke="#F7D8FE"/>
<path d="M1 791.916C528.263 879.172 894.473 887.239 1227.68 772.851C1560.89 658.464 1777.06 665.725 1921 791.694" stroke="#F7DBFE"/>
<path d="M1 751.172C496.328 864.492 836.029 878.171 1174.44 735.92C1512.86 593.67 1744.94 600.621 1921 750.894" stroke="#F8DDFF"/>
<path d="M1 710.471C464.394 849.856 777.585 869.145 1121.21 699.032C1464.83 528.919 1712.83 535.56 1921 710.137" stroke="#F8E0FF"/>
<path d="M1 669.794C432.46 835.244 719.141 860.144 1067.97 662.168C1416.8 464.193 1680.72 470.524 1921 669.405" stroke="#F9E3FF"/>
<path d="M1 629.136C400.526 820.651 660.697 851.162 1014.74 625.323C1368.78 399.485 1648.61 405.507 1921 628.692" stroke="#F9E5FF"/>
</svg>
