<svg xmlns="http://www.w3.org/2000/svg" xmlns:xlink="http://www.w3.org/1999/xlink" width="500" zoomAndPan="magnify" viewBox="0 0 375 374.999991" height="500" preserveAspectRatio="xMidYMid meet" version="1.0"><defs><g/></defs><g fill="#000000" fill-opacity="1"><g transform="translate(50.048563, 192.308358)"><g><path d="M 4.859375 -27.6875 L 4.859375 -38 L 14.40625 -38 L 14.40625 -27.6875 L 20.25 -27.6875 L 20.25 -20.40625 L 14.40625 -20.40625 L 14.40625 -11.609375 C 14.40625 -9.054688 15.128906 -7.78125 16.578125 -7.78125 C 16.929688 -7.78125 17.304688 -7.847656 17.703125 -7.984375 C 18.097656 -8.128906 18.40625 -8.273438 18.625 -8.421875 L 18.953125 -8.640625 L 21.328125 -0.921875 C 19.273438 0.234375 16.9375 0.8125 14.3125 0.8125 C 12.507812 0.8125 10.957031 0.5 9.65625 -0.125 C 8.363281 -0.757812 7.382812 -1.609375 6.71875 -2.671875 C 6.050781 -3.734375 5.570312 -4.847656 5.28125 -6.015625 C 5 -7.191406 4.859375 -8.441406 4.859375 -9.765625 L 4.859375 -20.40625 L 0.859375 -20.40625 L 0.859375 -27.6875 Z M 4.859375 -27.6875 "/></g></g></g><g fill="#000000" fill-opacity="1"><g transform="translate(66.293671, 192.308358)"><g><path d="M 3.234375 0 L 3.234375 -27.6875 L 12.796875 -27.6875 L 12.796875 -23.703125 L 12.90625 -23.703125 C 12.976562 -23.847656 13.09375 -24.023438 13.25 -24.234375 C 13.414062 -24.453125 13.765625 -24.832031 14.296875 -25.375 C 14.835938 -25.914062 15.414062 -26.398438 16.03125 -26.828125 C 16.644531 -27.265625 17.4375 -27.648438 18.40625 -27.984375 C 19.375 -28.328125 20.363281 -28.5 21.375 -28.5 C 22.414062 -28.5 23.441406 -28.351562 24.453125 -28.0625 C 25.460938 -27.78125 26.203125 -27.492188 26.671875 -27.203125 L 27.421875 -26.78125 L 23.421875 -18.671875 C 22.234375 -19.679688 20.582031 -20.1875 18.46875 -20.1875 C 17.3125 -20.1875 16.316406 -19.929688 15.484375 -19.421875 C 14.660156 -18.921875 14.078125 -18.3125 13.734375 -17.59375 C 13.390625 -16.875 13.144531 -16.257812 13 -15.75 C 12.863281 -15.25 12.796875 -14.859375 12.796875 -14.578125 L 12.796875 0 Z M 3.234375 0 "/></g></g></g><g fill="#000000" fill-opacity="1"><g transform="translate(88.09816, 192.308358)"><g><path d="M 4.15625 -43.125 C 5.269531 -44.25 6.597656 -44.8125 8.140625 -44.8125 C 9.691406 -44.8125 11.023438 -44.25 12.140625 -43.125 C 13.253906 -42.007812 13.8125 -40.675781 13.8125 -39.125 C 13.8125 -37.582031 13.253906 -36.253906 12.140625 -35.140625 C 11.023438 -34.023438 9.691406 -33.46875 8.140625 -33.46875 C 6.597656 -33.46875 5.269531 -34.023438 4.15625 -35.140625 C 3.039062 -36.253906 2.484375 -37.582031 2.484375 -39.125 C 2.484375 -40.675781 3.039062 -42.007812 4.15625 -43.125 Z M 3.234375 -27.6875 L 3.234375 0 L 12.796875 0 L 12.796875 -27.6875 Z M 3.234375 -27.6875 "/></g></g></g><g fill="#000000" fill-opacity="1"><g transform="translate(99.323649, 192.308358)"><g><path d="M 12.25 -27.6875 L 12.25 -14.515625 C 12.25 -11.785156 12.660156 -9.84375 13.484375 -8.6875 C 14.316406 -7.539062 15.722656 -6.96875 17.703125 -6.96875 C 19.679688 -6.96875 21.082031 -7.539062 21.90625 -8.6875 C 22.738281 -9.84375 23.15625 -11.785156 23.15625 -14.515625 L 23.15625 -27.6875 L 32.71875 -27.6875 L 32.71875 -12.203125 C 32.71875 -7.597656 31.519531 -4.273438 29.125 -2.234375 C 26.726562 -0.203125 22.921875 0.8125 17.703125 0.8125 C 12.484375 0.8125 8.675781 -0.203125 6.28125 -2.234375 C 3.894531 -4.273438 2.703125 -7.597656 2.703125 -12.203125 L 2.703125 -27.6875 Z M 12.25 -27.6875 "/></g></g></g><g fill="#000000" fill-opacity="1"><g transform="translate(129.656102, 192.308358)"><g><path d="M 3.234375 0 L 3.234375 -27.6875 L 12.796875 -27.6875 L 12.796875 -24.78125 L 12.90625 -24.78125 C 15.382812 -27.257812 18.03125 -28.5 20.84375 -28.5 C 22.851562 -28.5 24.738281 -28.082031 26.5 -27.25 C 28.269531 -26.425781 29.601562 -25.148438 30.5 -23.421875 C 33.3125 -26.804688 36.367188 -28.5 39.671875 -28.5 C 42.628906 -28.5 45.164062 -27.671875 47.28125 -26.015625 C 49.40625 -24.359375 50.46875 -21.769531 50.46875 -18.25 L 50.46875 0 L 40.921875 0 L 40.921875 -15.65625 C 40.921875 -17.132812 40.515625 -18.367188 39.703125 -19.359375 C 38.890625 -20.347656 37.675781 -20.84375 36.0625 -20.84375 C 34.65625 -20.84375 33.582031 -20.414062 32.84375 -19.5625 C 32.113281 -18.71875 31.710938 -17.703125 31.640625 -16.515625 L 31.640625 0 L 22.078125 0 L 22.078125 -15.65625 C 22.078125 -17.132812 21.671875 -18.367188 20.859375 -19.359375 C 20.054688 -20.347656 18.84375 -20.84375 17.21875 -20.84375 C 15.738281 -20.84375 14.628906 -20.378906 13.890625 -19.453125 C 13.160156 -18.535156 12.796875 -17.453125 12.796875 -16.203125 L 12.796875 0 Z M 3.234375 0 "/></g></g></g><g fill="#000000" fill-opacity="1"><g transform="translate(177.746155, 192.308358)"><g><path d="M 31.734375 -24.265625 C 34.328125 -21.441406 35.625 -17.976562 35.625 -13.875 C 35.625 -9.769531 34.328125 -6.296875 31.734375 -3.453125 C 29.148438 -0.609375 25.859375 0.8125 21.859375 0.8125 C 18.191406 0.8125 15.171875 -0.335938 12.796875 -2.640625 L 12.796875 14.03125 L 3.234375 14.03125 L 3.234375 -27.6875 L 12.6875 -27.6875 L 12.6875 -24.5625 L 12.796875 -24.5625 C 15.171875 -27.1875 18.191406 -28.5 21.859375 -28.5 C 25.859375 -28.5 29.148438 -27.085938 31.734375 -24.265625 Z M 23.609375 -9.171875 C 24.859375 -10.398438 25.484375 -11.96875 25.484375 -13.875 C 25.484375 -15.78125 24.890625 -17.335938 23.703125 -18.546875 C 22.515625 -19.753906 20.945312 -20.359375 19 -20.359375 C 17.132812 -20.359375 15.597656 -19.742188 14.390625 -18.515625 C 13.179688 -17.296875 12.578125 -15.75 12.578125 -13.875 C 12.578125 -11.96875 13.195312 -10.398438 14.4375 -9.171875 C 15.675781 -7.953125 17.195312 -7.34375 19 -7.34375 C 20.832031 -7.34375 22.367188 -7.953125 23.609375 -9.171875 Z M 23.609375 -9.171875 "/></g></g></g><g fill="#000000" fill-opacity="1"><g transform="translate(209.535917, 192.308358)"><g><path d="M 3.234375 0 L 3.234375 -46.421875 L 12.796875 -46.421875 L 12.796875 -24.78125 L 12.90625 -24.78125 C 15.382812 -27.257812 18.03125 -28.5 20.84375 -28.5 C 22.207031 -28.5 23.5625 -28.316406 24.90625 -27.953125 C 26.257812 -27.597656 27.554688 -27.039062 28.796875 -26.28125 C 30.035156 -25.53125 31.039062 -24.460938 31.8125 -23.078125 C 32.59375 -21.691406 32.984375 -20.082031 32.984375 -18.25 L 32.984375 0 L 23.421875 0 L 23.421875 -15.65625 C 23.421875 -17.09375 22.960938 -18.347656 22.046875 -19.421875 C 21.128906 -20.503906 19.9375 -21.046875 18.46875 -21.046875 C 17.019531 -21.046875 15.710938 -20.488281 14.546875 -19.375 C 13.378906 -18.257812 12.796875 -17.019531 12.796875 -15.65625 L 12.796875 0 Z M 3.234375 0 "/></g></g></g><g fill="#000000" fill-opacity="1"><g transform="translate(240.138238, 192.308358)"><g><path d="M 4.15625 -43.125 C 5.269531 -44.25 6.597656 -44.8125 8.140625 -44.8125 C 9.691406 -44.8125 11.023438 -44.25 12.140625 -43.125 C 13.253906 -42.007812 13.8125 -40.675781 13.8125 -39.125 C 13.8125 -37.582031 13.253906 -36.253906 12.140625 -35.140625 C 11.023438 -34.023438 9.691406 -33.46875 8.140625 -33.46875 C 6.597656 -33.46875 5.269531 -34.023438 4.15625 -35.140625 C 3.039062 -36.253906 2.484375 -37.582031 2.484375 -39.125 C 2.484375 -40.675781 3.039062 -42.007812 4.15625 -43.125 Z M 3.234375 -27.6875 L 3.234375 0 L 12.796875 0 L 12.796875 -27.6875 Z M 3.234375 -27.6875 "/></g></g></g><g fill="#000000" fill-opacity="1"><g transform="translate(251.363727, 192.308358)"><g><path d="M 4.859375 -27.6875 L 4.859375 -33.578125 C 4.890625 -37.710938 5.859375 -41.019531 7.765625 -43.5 C 9.679688 -45.988281 12.328125 -47.234375 15.703125 -47.234375 C 17.148438 -47.234375 18.53125 -47.023438 19.84375 -46.609375 C 21.15625 -46.203125 22.097656 -45.78125 22.671875 -45.34375 L 23.59375 -44.75 L 20.25 -38 C 19.382812 -38.507812 18.429688 -38.765625 17.390625 -38.765625 C 16.191406 -38.765625 15.394531 -38.359375 15 -37.546875 C 14.601562 -36.734375 14.40625 -35.320312 14.40625 -33.3125 L 14.40625 -27.6875 L 20.78125 -27.6875 L 20.78125 -20.40625 L 14.40625 -20.40625 L 14.40625 0 L 4.859375 0 L 4.859375 -20.40625 L 0.859375 -20.40625 L 0.859375 -27.6875 Z M 4.859375 -27.6875 "/></g></g></g><g fill="#000000" fill-opacity="1"><g transform="translate(266.529351, 192.308358)"><g><path d="M 24.234375 -27.6875 L 35.25 -27.6875 L 13.5 14.03125 L 2.484375 14.03125 L 12.03125 -4.3125 L -1.078125 -27.6875 L 9.9375 -27.6875 L 17.65625 -13.5 Z M 24.234375 -27.6875 "/></g></g></g><g fill="#000000" fill-opacity="1"><g transform="translate(295.620397, 192.308358)"><g/></g></g><g fill="#000000" fill-opacity="1"><g transform="translate(305.28062, 192.308358)"><g><path d="M 9.390625 -11.546875 C 11.117188 -11.546875 12.582031 -10.941406 13.78125 -9.734375 C 14.988281 -8.535156 15.59375 -7.070312 15.59375 -5.34375 C 15.59375 -3.65625 14.988281 -2.207031 13.78125 -1 C 12.582031 0.207031 11.117188 0.8125 9.390625 0.8125 C 7.703125 0.8125 6.253906 0.207031 5.046875 -1 C 3.835938 -2.207031 3.234375 -3.65625 3.234375 -5.34375 C 3.234375 -7.070312 3.835938 -8.535156 5.046875 -9.734375 C 6.253906 -10.941406 7.703125 -11.546875 9.390625 -11.546875 Z M 9.390625 -11.546875 "/></g></g></g><g fill="#8216a1" fill-opacity="1"><g transform="translate(78.5442, 220.291406)"><g><path d="M 0.09375 -7.453125 L 0.09375 -9.3125 L 6.640625 -9.3125 L 6.640625 -7.453125 L 4.421875 -7.453125 L 4.421875 0 L 2.296875 0 L 2.296875 -7.453125 Z M 0.09375 -7.453125 "/></g></g></g><g fill="#8216a1" fill-opacity="1"><g transform="translate(92.649382, 220.291406)"><g><path d="M 0.671875 0 L 0.671875 -9.71875 L 2.671875 -9.71875 L 2.671875 -5.1875 L 2.703125 -5.1875 C 3.222656 -5.707031 3.773438 -5.96875 4.359375 -5.96875 C 4.648438 -5.96875 4.9375 -5.925781 5.21875 -5.84375 C 5.5 -5.769531 5.769531 -5.65625 6.03125 -5.5 C 6.289062 -5.34375 6.5 -5.117188 6.65625 -4.828125 C 6.820312 -4.535156 6.90625 -4.195312 6.90625 -3.8125 L 6.90625 0 L 4.90625 0 L 4.90625 -3.28125 C 4.90625 -3.582031 4.804688 -3.84375 4.609375 -4.0625 C 4.421875 -4.289062 4.171875 -4.40625 3.859375 -4.40625 C 3.554688 -4.40625 3.28125 -4.285156 3.03125 -4.046875 C 2.789062 -3.816406 2.671875 -3.5625 2.671875 -3.28125 L 2.671875 0 Z M 0.671875 0 "/></g></g></g><g fill="#8216a1" fill-opacity="1"><g transform="translate(107.488863, 220.291406)"><g><path d="M 6.546875 -2.625 L 2.34375 -2.625 C 2.34375 -2.21875 2.472656 -1.914062 2.734375 -1.71875 C 2.992188 -1.519531 3.28125 -1.421875 3.59375 -1.421875 C 3.914062 -1.421875 4.171875 -1.460938 4.359375 -1.546875 C 4.546875 -1.640625 4.757812 -1.8125 5 -2.0625 L 6.453125 -1.34375 C 5.847656 -0.332031 4.847656 0.171875 3.453125 0.171875 C 2.578125 0.171875 1.828125 -0.125 1.203125 -0.71875 C 0.578125 -1.320312 0.265625 -2.046875 0.265625 -2.890625 C 0.265625 -3.734375 0.578125 -4.457031 1.203125 -5.0625 C 1.828125 -5.664062 2.578125 -5.96875 3.453125 -5.96875 C 4.367188 -5.96875 5.113281 -5.703125 5.6875 -5.171875 C 6.257812 -4.640625 6.546875 -3.878906 6.546875 -2.890625 C 6.546875 -2.753906 6.546875 -2.664062 6.546875 -2.625 Z M 2.390625 -3.734375 L 4.59375 -3.734375 C 4.550781 -4.035156 4.429688 -4.265625 4.234375 -4.421875 C 4.046875 -4.585938 3.800781 -4.671875 3.5 -4.671875 C 3.164062 -4.671875 2.898438 -4.582031 2.703125 -4.40625 C 2.515625 -4.226562 2.410156 -4.003906 2.390625 -3.734375 Z M 2.390625 -3.734375 "/></g></g></g><g fill="#8216a1" fill-opacity="1"><g transform="translate(121.673125, 220.291406)"><g/></g></g><g fill="#8216a1" fill-opacity="1"><g transform="translate(132.129393, 220.291406)"><g><path d="M 0.671875 -9.3125 L 4.078125 -9.3125 C 5.023438 -9.3125 5.789062 -9.066406 6.375 -8.578125 C 6.96875 -8.085938 7.265625 -7.375 7.265625 -6.4375 C 7.265625 -5.507812 6.96875 -4.78125 6.375 -4.25 C 5.78125 -3.71875 5.015625 -3.453125 4.078125 -3.453125 L 2.796875 -3.453125 L 2.796875 0 L 0.671875 0 Z M 2.796875 -5.15625 L 3.40625 -5.15625 C 3.875 -5.15625 4.257812 -5.25 4.5625 -5.4375 C 4.875 -5.632812 5.03125 -5.945312 5.03125 -6.375 C 5.03125 -6.820312 4.875 -7.140625 4.5625 -7.328125 C 4.257812 -7.523438 3.875 -7.625 3.40625 -7.625 L 2.796875 -7.625 Z M 2.796875 -5.15625 "/></g></g></g><g fill="#8216a1" fill-opacity="1"><g transform="translate(147.025366, 220.291406)"><g><path d="M 2.5625 -5.796875 L 2.5625 -3.03125 C 2.5625 -2.46875 2.644531 -2.0625 2.8125 -1.8125 C 2.988281 -1.570312 3.285156 -1.453125 3.703125 -1.453125 C 4.117188 -1.453125 4.410156 -1.570312 4.578125 -1.8125 C 4.753906 -2.0625 4.84375 -2.46875 4.84375 -3.03125 L 4.84375 -5.796875 L 6.84375 -5.796875 L 6.84375 -2.546875 C 6.84375 -1.585938 6.59375 -0.894531 6.09375 -0.46875 C 5.59375 -0.0390625 4.796875 0.171875 3.703125 0.171875 C 2.609375 0.171875 1.8125 -0.0390625 1.3125 -0.46875 C 0.8125 -0.894531 0.5625 -1.585938 0.5625 -2.546875 L 0.5625 -5.796875 Z M 2.5625 -5.796875 "/></g></g></g><g fill="#8216a1" fill-opacity="1"><g transform="translate(161.808362, 220.291406)"><g><path d="M 0.671875 0 L 0.671875 -5.796875 L 2.671875 -5.796875 L 2.671875 -4.953125 L 2.703125 -4.953125 C 2.710938 -4.984375 2.734375 -5.019531 2.765625 -5.0625 C 2.804688 -5.113281 2.878906 -5.195312 2.984375 -5.3125 C 3.097656 -5.425781 3.21875 -5.523438 3.34375 -5.609375 C 3.476562 -5.703125 3.644531 -5.785156 3.84375 -5.859375 C 4.050781 -5.929688 4.257812 -5.96875 4.46875 -5.96875 C 4.6875 -5.96875 4.898438 -5.9375 5.109375 -5.875 C 5.328125 -5.8125 5.484375 -5.75 5.578125 -5.6875 L 5.734375 -5.609375 L 4.90625 -3.90625 C 4.65625 -4.113281 4.304688 -4.21875 3.859375 -4.21875 C 3.617188 -4.21875 3.410156 -4.164062 3.234375 -4.0625 C 3.066406 -3.957031 2.945312 -3.828125 2.875 -3.671875 C 2.800781 -3.523438 2.75 -3.398438 2.71875 -3.296875 C 2.6875 -3.191406 2.671875 -3.109375 2.671875 -3.046875 L 2.671875 0 Z M 0.671875 0 "/></g></g></g><g fill="#8216a1" fill-opacity="1"><g transform="translate(174.806446, 220.291406)"><g><path d="M 6.640625 -5.078125 C 7.179688 -4.484375 7.453125 -3.753906 7.453125 -2.890625 C 7.453125 -2.035156 7.179688 -1.3125 6.640625 -0.71875 C 6.097656 -0.125 5.410156 0.171875 4.578125 0.171875 C 3.804688 0.171875 3.171875 -0.0664062 2.671875 -0.546875 L 2.671875 2.9375 L 0.671875 2.9375 L 0.671875 -5.796875 L 2.65625 -5.796875 L 2.65625 -5.140625 L 2.671875 -5.140625 C 3.171875 -5.691406 3.804688 -5.96875 4.578125 -5.96875 C 5.410156 -5.96875 6.097656 -5.671875 6.640625 -5.078125 Z M 4.9375 -1.90625 C 5.195312 -2.164062 5.328125 -2.492188 5.328125 -2.890625 C 5.328125 -3.296875 5.203125 -3.625 4.953125 -3.875 C 4.710938 -4.132812 4.382812 -4.265625 3.96875 -4.265625 C 3.582031 -4.265625 3.257812 -4.132812 3 -3.875 C 2.75 -3.613281 2.625 -3.289062 2.625 -2.90625 C 2.625 -2.5 2.753906 -2.164062 3.015625 -1.90625 C 3.273438 -1.65625 3.59375 -1.53125 3.96875 -1.53125 C 4.351562 -1.53125 4.675781 -1.65625 4.9375 -1.90625 Z M 4.9375 -1.90625 "/></g></g></g><g fill="#8216a1" fill-opacity="1"><g transform="translate(189.894462, 220.291406)"><g><path d="M 0.671875 0 L 0.671875 -9.71875 L 2.671875 -9.71875 L 2.671875 0 Z M 0.671875 0 "/></g></g></g><g fill="#8216a1" fill-opacity="1"><g transform="translate(200.621866, 220.291406)"><g><path d="M 6.546875 -2.625 L 2.34375 -2.625 C 2.34375 -2.21875 2.472656 -1.914062 2.734375 -1.71875 C 2.992188 -1.519531 3.28125 -1.421875 3.59375 -1.421875 C 3.914062 -1.421875 4.171875 -1.460938 4.359375 -1.546875 C 4.546875 -1.640625 4.757812 -1.8125 5 -2.0625 L 6.453125 -1.34375 C 5.847656 -0.332031 4.847656 0.171875 3.453125 0.171875 C 2.578125 0.171875 1.828125 -0.125 1.203125 -0.71875 C 0.578125 -1.320312 0.265625 -2.046875 0.265625 -2.890625 C 0.265625 -3.734375 0.578125 -4.457031 1.203125 -5.0625 C 1.828125 -5.664062 2.578125 -5.96875 3.453125 -5.96875 C 4.367188 -5.96875 5.113281 -5.703125 5.6875 -5.171875 C 6.257812 -4.640625 6.546875 -3.878906 6.546875 -2.890625 C 6.546875 -2.753906 6.546875 -2.664062 6.546875 -2.625 Z M 2.390625 -3.734375 L 4.59375 -3.734375 C 4.550781 -4.035156 4.429688 -4.265625 4.234375 -4.421875 C 4.046875 -4.585938 3.800781 -4.671875 3.5 -4.671875 C 3.164062 -4.671875 2.898438 -4.582031 2.703125 -4.40625 C 2.515625 -4.226562 2.410156 -4.003906 2.390625 -3.734375 Z M 2.390625 -3.734375 "/></g></g></g><g fill="#8216a1" fill-opacity="1"><g transform="translate(214.806131, 220.291406)"><g/></g></g><g fill="#8216a1" fill-opacity="1"><g transform="translate(225.262402, 220.291406)"><g><path d="M 0.671875 -9.3125 L 4.078125 -9.3125 C 5.023438 -9.3125 5.789062 -9.066406 6.375 -8.578125 C 6.96875 -8.085938 7.265625 -7.375 7.265625 -6.4375 C 7.265625 -5.507812 6.96875 -4.78125 6.375 -4.25 C 5.78125 -3.71875 5.015625 -3.453125 4.078125 -3.453125 L 2.796875 -3.453125 L 2.796875 0 L 0.671875 0 Z M 2.796875 -5.15625 L 3.40625 -5.15625 C 3.875 -5.15625 4.257812 -5.25 4.5625 -5.4375 C 4.875 -5.632812 5.03125 -5.945312 5.03125 -6.375 C 5.03125 -6.820312 4.875 -7.140625 4.5625 -7.328125 C 4.257812 -7.523438 3.875 -7.625 3.40625 -7.625 L 2.796875 -7.625 Z M 2.796875 -5.15625 "/></g></g></g><g fill="#8216a1" fill-opacity="1"><g transform="translate(240.158375, 220.291406)"><g><path d="M 0.859375 -9.015625 C 1.097656 -9.253906 1.378906 -9.375 1.703125 -9.375 C 2.023438 -9.375 2.300781 -9.253906 2.53125 -9.015625 C 2.769531 -8.785156 2.890625 -8.507812 2.890625 -8.1875 C 2.890625 -7.863281 2.769531 -7.582031 2.53125 -7.34375 C 2.300781 -7.113281 2.023438 -7 1.703125 -7 C 1.378906 -7 1.097656 -7.113281 0.859375 -7.34375 C 0.628906 -7.582031 0.515625 -7.863281 0.515625 -8.1875 C 0.515625 -8.507812 0.628906 -8.785156 0.859375 -9.015625 Z M 0.671875 -5.796875 L 0.671875 0 L 2.671875 0 L 2.671875 -5.796875 Z M 0.671875 -5.796875 "/></g></g></g><g fill="#8216a1" fill-opacity="1"><g transform="translate(250.942256, 220.291406)"><g><path d="M 0.671875 0 L 0.671875 -9.71875 L 2.671875 -9.71875 L 2.671875 0 Z M 0.671875 0 "/></g></g></g><g fill="#8216a1" fill-opacity="1"><g transform="translate(261.669661, 220.291406)"><g><path d="M 0.671875 0 L 0.671875 -9.71875 L 2.671875 -9.71875 L 2.671875 0 Z M 0.671875 0 "/></g></g></g></svg>