<svg width="1050" height="250" viewBox="0 0 1050 250" fill="none" xmlns="http://www.w3.org/2000/svg">
<path d="M50 25C50 38.8071 38.8071 50 25 50C11.1929 50 0 38.8071 0 25C0 11.1929 11.1929 0 25 0C38.8071 0 50 11.1929 50 25Z" fill="#C084FC"/>
<path d="M50 225C50 238.807 38.8071 250 25 250C11.1929 250 0 238.807 0 225C0 211.193 11.1929 200 25 200C38.8071 200 50 211.193 50 225Z" fill="#C084FC"/>
<path d="M250 25C250 38.8071 238.807 50 225 50C211.193 50 200 38.8071 200 25C200 11.1929 211.193 0 225 0C238.807 0 250 11.1929 250 25Z" fill="#C084FC"/>
<path d="M250 225C250 238.807 238.807 250 225 250C211.193 250 200 238.807 200 225C200 211.193 211.193 200 225 200C238.807 200 250 211.193 250 225Z" fill="#C084FC"/>
<path d="M450 25C450 38.8071 438.807 50 425 50C411.193 50 400 38.8071 400 25C400 11.1929 411.193 0 425 0C438.807 0 450 11.1929 450 25Z" fill="#C084FC"/>
<path d="M450 225C450 238.807 438.807 250 425 250C411.193 250 400 238.807 400 225C400 211.193 411.193 200 425 200C438.807 200 450 211.193 450 225Z" fill="#C084FC"/>
<path d="M650 25C650 38.8071 638.807 50 625 50C611.193 50 600 38.8071 600 25C600 11.1929 611.193 0 625 0C638.807 0 650 11.1929 650 25Z" fill="#C084FC"/>
<path d="M650 225C650 238.807 638.807 250 625 250C611.193 250 600 238.807 600 225C600 211.193 611.193 200 625 200C638.807 200 650 211.193 650 225Z" fill="#C084FC"/>
<path d="M850 25C850 38.8071 838.807 50 825 50C811.193 50 800 38.8071 800 25C800 11.1929 811.193 0 825 0C838.807 0 850 11.1929 850 25Z" fill="#C084FC"/>
<path d="M850 225C850 238.807 838.807 250 825 250C811.193 250 800 238.807 800 225C800 211.193 811.193 200 825 200C838.807 200 850 211.193 850 225Z" fill="#C084FC"/>
<path d="M1050 25C1050 38.8071 1038.81 50 1025 50C1011.19 50 1000 38.8071 1000 25C1000 11.1929 1011.19 0 1025 0C1038.81 0 1050 11.1929 1050 25Z" fill="#C084FC"/>
<path d="M1050 225C1050 238.807 1038.81 250 1025 250C1011.19 250 1000 238.807 1000 225C1000 211.193 1011.19 200 1025 200C1038.81 200 1050 211.193 1050 225Z" fill="#C084FC"/>
</svg>
