<svg width="1450" height="1450" viewBox="0 0 1450 1450" fill="none" xmlns="http://www.w3.org/2000/svg">
<circle cx="25" cy="25" r="25" fill="#C084FC"/>
<circle cx="25" cy="225" r="25" fill="#C084FC"/>
<circle cx="225" cy="25" r="25" fill="#C084FC"/>
<circle cx="225" cy="225" r="25" fill="#C084FC"/>
<circle cx="425" cy="25" r="25" fill="#C084FC"/>
<circle cx="425" cy="225" r="25" fill="#C084FC"/>
<circle cx="625" cy="25" r="25" fill="#C084FC"/>
<circle cx="625" cy="225" r="25" fill="#C084FC"/>
<circle cx="825" cy="25" r="25" fill="#C084FC"/>
<circle cx="825" cy="225" r="25" fill="#C084FC"/>
<circle cx="1025" cy="25" r="25" fill="#C084FC"/>
<circle cx="1025" cy="225" r="25" fill="#C084FC"/>
<circle cx="1225" cy="25" r="25" fill="#C084FC"/>
<circle cx="1225" cy="225" r="25" fill="#C084FC"/>
<circle cx="1425" cy="25" r="25" fill="#C084FC"/>
<circle cx="1425" cy="225" r="25" fill="#C084FC"/>
<circle cx="25" cy="425" r="25" fill="#C084FC"/>
<circle cx="25" cy="625" r="25" fill="#C084FC"/>
<circle cx="225" cy="425" r="25" fill="#C084FC"/>
<circle cx="225" cy="625" r="25" fill="#C084FC"/>
<circle cx="25" cy="825" r="25" fill="#C084FC"/>
<circle cx="25" cy="1025" r="25" fill="#C084FC"/>
<circle cx="225" cy="825" r="25" fill="#C084FC"/>
<circle cx="225" cy="1025" r="25" fill="#C084FC"/>
<circle cx="25" cy="1225" r="25" fill="#C084FC"/>
<circle cx="25" cy="1425" r="25" fill="#C084FC"/>
<circle cx="225" cy="1225" r="25" fill="#C084FC"/>
<circle cx="225" cy="1425" r="25" fill="#C084FC"/>
</svg>
